<svg width="250" height="250" viewBox="-125 -125 250 250" role="img" aria-label="Animated bloub avatar" xmlns="http://www.w3.org/2000/svg"><defs><mask id="bot-mask-zxvt8g" maskUnits="userSpaceOnUse" x="-158" y="-158" width="316" height="316"><path d="M97.84 0.33C97.35 3.52 96.67 6.68 95.86 9.75C95.05 12.83 94.07 15.85 92.99 18.79C91.9 21.73 90.68 24.59 89.36 27.38C88.04 30.16 86.61 32.87 85.1 35.5C83.58 38.13 81.97 40.67 80.29 43.14C78.61 45.61 76.84 48.01 75 50.32C73.17 52.63 71.25 54.87 69.27 57.03C67.29 59.18 65.24 61.26 63.11 63.26C60.99 65.25 58.79 67.16 56.53 68.98C54.26 70.8 51.92 72.53 49.52 74.16C47.11 75.78 44.63 77.31 42.09 78.72C39.55 80.13 36.93 81.44 34.27 82.61C31.6 83.78 28.87 84.84 26.1 85.75C23.33 86.66 20.5 87.45 17.64 88.09C14.79 88.72 11.89 89.22 8.98 89.57C6.07 89.92 3.12 90.12 0.19 90.18C-2.75 90.24 -5.7 90.15 -8.64 89.92C-11.57 89.69 -14.51 89.31 -17.41 88.81C-20.32 88.3 -23.21 87.65 -26.07 86.88C-28.92 86.11 -31.76 85.2 -34.54 84.18C-37.33 83.16 -40.09 82.01 -42.8 80.75C-45.5 79.49 -48.17 78.11 -50.79 76.62C-53.4 75.13 -55.97 73.53 -58.48 71.82C-60.99 70.1 -63.45 68.28 -65.83 66.35C-68.21 64.41 -70.54 62.37 -72.78 60.21C-75.01 58.05 -77.19 55.78 -79.24 53.4C-81.3 51.02 -83.28 48.52 -85.11 45.92C-86.95 43.32 -88.69 40.6 -90.26 37.79C-91.83 34.99 -93.29 32.06 -94.55 29.07C-95.8 26.07 -96.92 22.97 -97.81 19.82C-98.71 16.68 -99.43 13.44 -99.92 10.19C-100.41 6.94 -100.7 3.62 -100.76 0.33C-100.81 -2.96 -100.65 -6.3 -100.25 -9.56C-99.85 -12.83 -99.22 -16.1 -98.37 -19.27C-97.52 -22.45 -96.43 -25.58 -95.15 -28.59C-93.87 -31.6 -92.36 -34.53 -90.69 -37.31C-89.02 -40.1 -87.14 -42.77 -85.14 -45.28C-83.14 -47.79 -80.95 -50.16 -78.69 -52.37C-76.42 -54.58 -74 -56.63 -71.54 -58.53C-69.07 -60.43 -66.5 -62.17 -63.91 -63.77C-61.32 -65.37 -58.65 -66.8 -56 -68.13C-53.34 -69.46 -50.64 -70.63 -47.96 -71.73C-45.28 -72.82 -42.59 -73.78 -39.91 -74.69C-37.23 -75.59 -34.57 -76.39 -31.91 -77.15C-29.25 -77.91 -26.6 -78.59 -23.95 -79.24C-21.3 -79.89 -18.66 -80.48 -16 -81.04C-13.34 -81.6 -10.68 -82.12 -7.98 -82.6C-5.28 -83.07 -2.57 -83.52 0.19 -83.89C2.95 -84.27 5.74 -84.61 8.58 -84.85C11.42 -85.09 14.3 -85.29 17.23 -85.35C20.16 -85.42 23.14 -85.41 26.14 -85.24C29.15 -85.07 32.21 -84.8 35.26 -84.34C38.31 -83.88 41.4 -83.29 44.46 -82.49C47.51 -81.69 50.58 -80.73 53.57 -79.56C56.55 -78.39 59.53 -77.02 62.38 -75.45C65.23 -73.89 68.03 -72.11 70.67 -70.15C73.3 -68.19 75.84 -66.02 78.19 -63.69C80.54 -61.36 82.75 -58.82 84.74 -56.17C86.73 -53.51 88.55 -50.67 90.14 -47.75C91.73 -44.83 93.12 -41.76 94.28 -38.64C95.44 -35.53 96.37 -32.3 97.09 -29.06C97.8 -25.83 98.29 -22.52 98.57 -19.24C98.85 -15.96 98.91 -12.64 98.79 -9.38C98.67 -6.12 98.33 -2.86 97.84 0.33Z" fill="#fff"/><path d="M-20 -10A20 20 0 0 1 0 -30L0 -30A20 20 0 0 1 20 -10L20 10A20 20 0 0 1 0 30L0 30A20 20 0 0 1 -20 10Z" class="oeil0" opacity="1" fill="#000"/><path d="M-20 -10A20 20 0 0 1 0 -30L0 -30A20 20 0 0 1 20 -10L20 10A20 20 0 0 1 0 30L0 30A20 20 0 0 1 -20 10Z" class="oeil1" opacity="1" fill="#000"/></mask></defs><g fill="none" stroke-linecap="round"></g><g opacity="1"><path d="M97.84 0.33C97.35 3.52 96.67 6.68 95.86 9.75C95.05 12.83 94.07 15.85 92.99 18.79C91.9 21.73 90.68 24.59 89.36 27.38C88.04 30.16 86.61 32.87 85.1 35.5C83.58 38.13 81.97 40.67 80.29 43.14C78.61 45.61 76.84 48.01 75 50.32C73.17 52.63 71.25 54.87 69.27 57.03C67.29 59.18 65.24 61.26 63.11 63.26C60.99 65.25 58.79 67.16 56.53 68.98C54.26 70.8 51.92 72.53 49.52 74.16C47.11 75.78 44.63 77.31 42.09 78.72C39.55 80.13 36.93 81.44 34.27 82.61C31.6 83.78 28.87 84.84 26.1 85.75C23.33 86.66 20.5 87.45 17.64 88.09C14.79 88.72 11.89 89.22 8.98 89.57C6.07 89.92 3.12 90.12 0.19 90.18C-2.75 90.24 -5.7 90.15 -8.64 89.92C-11.57 89.69 -14.51 89.31 -17.41 88.81C-20.32 88.3 -23.21 87.65 -26.07 86.88C-28.92 86.11 -31.76 85.2 -34.54 84.18C-37.33 83.16 -40.09 82.01 -42.8 80.75C-45.5 79.49 -48.17 78.11 -50.79 76.62C-53.4 75.13 -55.97 73.53 -58.48 71.82C-60.99 70.1 -63.45 68.28 -65.83 66.35C-68.21 64.41 -70.54 62.37 -72.78 60.21C-75.01 58.05 -77.19 55.78 -79.24 53.4C-81.3 51.02 -83.28 48.52 -85.11 45.92C-86.95 43.32 -88.69 40.6 -90.26 37.79C-91.83 34.99 -93.29 32.06 -94.55 29.07C-95.8 26.07 -96.92 22.97 -97.81 19.82C-98.71 16.68 -99.43 13.44 -99.92 10.19C-100.41 6.94 -100.7 3.62 -100.76 0.33C-100.81 -2.96 -100.65 -6.3 -100.25 -9.56C-99.85 -12.83 -99.22 -16.1 -98.37 -19.27C-97.52 -22.45 -96.43 -25.58 -95.15 -28.59C-93.87 -31.6 -92.36 -34.53 -90.69 -37.31C-89.02 -40.1 -87.14 -42.77 -85.14 -45.28C-83.14 -47.79 -80.95 -50.16 -78.69 -52.37C-76.42 -54.58 -74 -56.63 -71.54 -58.53C-69.07 -60.43 -66.5 -62.17 -63.91 -63.77C-61.32 -65.37 -58.65 -66.8 -56 -68.13C-53.34 -69.46 -50.64 -70.63 -47.96 -71.73C-45.28 -72.82 -42.59 -73.78 -39.91 -74.69C-37.23 -75.59 -34.57 -76.39 -31.91 -77.15C-29.25 -77.91 -26.6 -78.59 -23.95 -79.24C-21.3 -79.89 -18.66 -80.48 -16 -81.04C-13.34 -81.6 -10.68 -82.12 -7.98 -82.6C-5.28 -83.07 -2.57 -83.52 0.19 -83.89C2.95 -84.27 5.74 -84.61 8.58 -84.85C11.42 -85.09 14.3 -85.29 17.23 -85.35C20.16 -85.42 23.14 -85.41 26.14 -85.24C29.15 -85.07 32.21 -84.8 35.26 -84.34C38.31 -83.88 41.4 -83.29 44.46 -82.49C47.51 -81.69 50.58 -80.73 53.57 -79.56C56.55 -78.39 59.53 -77.02 62.38 -75.45C65.23 -73.89 68.03 -72.11 70.67 -70.15C73.3 -68.19 75.84 -66.02 78.19 -63.69C80.54 -61.36 82.75 -58.82 84.74 -56.17C86.73 -53.51 88.55 -50.67 90.14 -47.75C91.73 -44.83 93.12 -41.76 94.28 -38.64C95.44 -35.53 96.37 -32.3 97.09 -29.06C97.8 -25.83 98.29 -22.52 98.57 -19.24C98.85 -15.96 98.91 -12.64 98.79 -9.38C98.67 -6.12 98.33 -2.86 97.84 0.33Z" fill="#f9f9f9"/><g mask="url(#bot-mask-zxvt8g)"><rect x="-158" y="-158" width="316" height="316" fill="#3ecf8e"/></g></g><g></g><g fill="none" stroke-linecap="round"></g><style>.oeil0,.oeil1{transform-box:view-box;transform-origin:0 0;animation-duration:2.967s;animation-iteration-count:infinite;animation-timing-function:linear;animation-direction:alternate}.oeil0{animation-name:oeil0}.oeil1{animation-name:oeil1}@keyframes oeil0{0%{transform:matrix(0.96,0.11,-0.03,0.95,-24.87,20.67)}1.124%{transform:matrix(0.96,0.11,-0.03,0.95,-24.89,20.72)}2.247%{transform:matrix(0.96,0.11,-0.03,0.95,-24.91,20.77)}3.371%{transform:matrix(0.96,0.11,-0.03,0.95,-24.95,20.81)}4.494%{transform:matrix(0.96,0.11,-0.03,0.95,-24.99,20.85)}5.618%{transform:matrix(0.96,0.11,-0.03,0.95,-25.03,20.89)}6.742%{transform:matrix(0.96,0.11,-0.03,0.95,-25.09,20.93)}7.865%{transform:matrix(0.96,0.11,-0.02,0.95,-25.15,20.95)}8.989%{transform:matrix(0.96,0.11,-0.02,0.95,-25.22,20.98)}10.112%{transform:matrix(0.96,0.11,-0.02,0.95,-25.3,21)}11.236%{transform:matrix(0.96,0.11,-0.02,0.95,-25.38,21.02)}12.36%{transform:matrix(0.96,0.11,-0.02,0.95,-25.47,21.03)}13.483%{transform:matrix(0.96,0.11,-0.02,0.95,-25.56,21.04)}14.607%{transform:matrix(0.96,0.11,-0.02,0.95,-25.65,21.04)}15.73%{transform:matrix(0.96,0.11,-0.02,0.95,-25.74,21.05)}16.854%{transform:matrix(0.96,0.11,-0.02,0.95,-25.83,21.05)}17.978%{transform:matrix(0.96,0.11,-0.02,0.95,-25.92,21.05)}19.101%{transform:matrix(0.96,0.11,-0.02,0.95,-26,21.05)}20.225%{transform:matrix(0.96,0.11,-0.02,0.95,-26.09,21.05)}21.348%{transform:matrix(0.96,0.11,-0.02,0.95,-26.16,21.05)}22.472%{transform:matrix(0.96,0.1,-0.02,0.95,-26.24,21.05)}23.596%{transform:matrix(0.96,0.1,-0.02,0.95,-26.31,21.05)}24.719%{transform:matrix(0.96,0.1,-0.02,0.95,-26.37,21.06)}25.843%{transform:matrix(0.96,0.1,-0.02,0.95,-26.43,21.07)}26.966%{transform:matrix(0.96,0.1,-0.02,0.95,-26.48,21.08)}28.09%{transform:matrix(0.96,0.1,-0.02,0.95,-26.53,21.09)}29.213%{transform:matrix(0.96,0.1,-0.02,0.95,-26.58,21.11)}30.337%{transform:matrix(0.96,0.1,-0.02,0.95,-26.63,21.13)}31.461%{transform:matrix(0.96,0.1,-0.02,0.95,-26.67,21.16)}32.584%{transform:matrix(0.96,0.1,-0.02,0.95,-26.71,21.19)}33.708%{transform:matrix(0.96,0.1,-0.02,0.95,-26.76,21.23)}34.831%{transform:matrix(0.96,0.1,-0.02,0.95,-26.8,21.27)}35.955%{transform:matrix(0.96,0.1,-0.02,0.95,-26.85,21.31)}37.079%{transform:matrix(0.96,0.1,-0.02,0.95,-26.91,21.36)}38.202%{transform:matrix(0.96,0.1,-0.02,0.95,-26.97,21.41)}39.326%{transform:matrix(0.96,0.1,-0.01,0.95,-27.04,21.46)}40.449%{transform:matrix(0.96,0.1,-0.01,0.95,-27.11,21.51)}41.573%{transform:matrix(0.96,0.1,-0.01,0.95,-27.2,21.57)}42.697%{transform:matrix(0.96,0.11,-0.01,0.95,-27.29,21.62)}43.82%{transform:matrix(0.96,0.11,-0.01,0.95,-27.39,21.68)}44.944%{transform:matrix(0.96,0.11,-0.01,0.95,-27.49,21.74)}46.067%{transform:matrix(0.96,0.11,-0.01,0.95,-27.61,21.8)}47.191%{transform:matrix(0.95,0.11,-0.01,0.95,-27.73,21.85)}48.315%{transform:matrix(0.95,0.06,-0.01,0.58,-27.85,21.91)}49.438%{transform:matrix(0.95,0.02,-0.01,0.21,-27.98,21.96)}50.562%{transform:matrix(0.95,0.03,-0.01,0.23,-28.1,22.02)}51.685%{transform:matrix(0.95,0.06,-0.01,0.53,-28.23,22.07)}52.809%{transform:matrix(0.95,0.09,-0.01,0.83,-28.35,22.12)}53.933%{transform:matrix(0.95,0.11,-0.01,0.95,-28.47,22.16)}55.056%{transform:matrix(0.95,0.11,-0.01,0.95,-28.58,22.21)}56.18%{transform:matrix(0.95,0.11,-0.01,0.95,-28.68,22.25)}57.303%{transform:matrix(0.95,0.11,-0.01,0.95,-28.76,22.3)}58.427%{transform:matrix(0.95,0.11,-0.01,0.95,-28.83,22.34)}59.551%{transform:matrix(0.95,0.11,-0.01,0.95,-28.89,22.38)}60.674%{transform:matrix(0.95,0.11,-0.01,0.95,-28.92,22.42)}61.798%{transform:matrix(0.95,0.11,-0.01,0.95,-28.93,22.46)}62.921%{transform:matrix(0.95,0.11,-0.01,0.95,-28.92,22.51)}64.045%{transform:matrix(0.95,0.11,-0.01,0.94,-28.89,22.55)}65.169%{transform:matrix(0.95,0.11,-0.01,0.94,-28.84,22.6)}66.292%{transform:matrix(0.95,0.11,-0.01,0.94,-28.76,22.65)}67.416%{transform:matrix(0.95,0.11,-0.01,0.94,-28.66,22.71)}68.539%{transform:matrix(0.95,0.11,-0.01,0.94,-28.54,22.77)}69.663%{transform:matrix(0.95,0.11,-0.01,0.94,-28.4,22.83)}70.787%{transform:matrix(0.95,0.11,-0.01,0.94,-28.24,22.9)}71.91%{transform:matrix(0.95,0.11,-0.01,0.94,-28.06,22.97)}73.034%{transform:matrix(0.95,0.11,-0.01,0.94,-27.87,23.05)}74.157%{transform:matrix(0.95,0.11,-0.01,0.94,-27.66,23.14)}75.281%{transform:matrix(0.96,0.11,-0.01,0.94,-27.45,23.23)}76.404%{transform:matrix(0.96,0.11,-0.01,0.94,-27.23,23.33)}77.528%{transform:matrix(0.96,0.11,-0.01,0.94,-27.01,23.43)}78.652%{transform:matrix(0.96,0.11,-0.01,0.94,-26.79,23.54)}79.775%{transform:matrix(0.96,0.11,-0.02,0.94,-26.58,23.65)}80.899%{transform:matrix(0.96,0.11,-0.02,0.94,-26.37,23.76)}82.022%{transform:matrix(0.96,0.11,-0.02,0.94,-26.17,23.88)}83.146%{transform:matrix(0.96,0.11,-0.02,0.94,-25.98,24)}84.27%{transform:matrix(0.96,0.11,-0.02,0.94,-25.81,24.11)}85.393%{transform:matrix(0.96,0.11,-0.02,0.94,-25.66,24.23)}86.517%{transform:matrix(0.96,0.11,-0.02,0.94,-25.53,24.35)}87.64%{transform:matrix(0.96,0.11,-0.02,0.94,-25.41,24.46)}88.764%{transform:matrix(0.96,0.11,-0.02,0.94,-25.32,24.58)}89.888%{transform:matrix(0.96,0.11,-0.02,0.94,-25.26,24.68)}91.011%{transform:matrix(0.96,0.11,-0.02,0.93,-25.21,24.78)}92.135%{transform:matrix(0.96,0.11,-0.02,0.93,-25.19,24.87)}93.258%{transform:matrix(0.96,0.11,-0.02,0.93,-25.18,24.95)}94.382%{transform:matrix(0.96,0.12,-0.02,0.93,-25.2,25.02)}95.506%{transform:matrix(0.96,0.12,-0.02,0.93,-25.24,25.08)}96.629%{transform:matrix(0.96,0.11,-0.02,0.93,-25.29,25.13)}97.753%{transform:matrix(0.96,0.11,-0.02,0.93,-25.36,25.16)}98.876%{transform:matrix(0.96,0.11,-0.02,0.93,-25.44,25.19)}100%{transform:matrix(0.96,0.11,-0.02,0.93,-25.54,25.19)}}@keyframes oeil1{0%{transform:matrix(0.9,-0.11,-0.03,0.95,38.73,19.76)}1.124%{transform:matrix(0.9,-0.11,-0.03,0.95,38.71,19.8)}2.247%{transform:matrix(0.9,-0.11,-0.03,0.95,38.68,19.83)}3.371%{transform:matrix(0.9,-0.11,-0.03,0.95,38.65,19.86)}4.494%{transform:matrix(0.9,-0.11,-0.03,0.95,38.61,19.89)}5.618%{transform:matrix(0.9,-0.11,-0.03,0.95,38.57,19.91)}6.742%{transform:matrix(0.9,-0.11,-0.03,0.95,38.51,19.92)}7.865%{transform:matrix(0.9,-0.11,-0.02,0.95,38.46,19.94)}8.989%{transform:matrix(0.9,-0.11,-0.02,0.95,38.39,19.94)}10.112%{transform:matrix(0.91,-0.11,-0.02,0.95,38.32,19.95)}11.236%{transform:matrix(0.91,-0.11,-0.02,0.95,38.25,19.94)}12.36%{transform:matrix(0.91,-0.11,-0.02,0.95,38.17,19.94)}13.483%{transform:matrix(0.91,-0.11,-0.02,0.95,38.09,19.93)}14.607%{transform:matrix(0.91,-0.11,-0.02,0.95,38.01,19.92)}15.73%{transform:matrix(0.91,-0.11,-0.02,0.95,37.93,19.91)}16.854%{transform:matrix(0.91,-0.11,-0.02,0.95,37.85,19.89)}17.978%{transform:matrix(0.91,-0.11,-0.02,0.95,37.77,19.87)}19.101%{transform:matrix(0.91,-0.11,-0.02,0.95,37.7,19.86)}20.225%{transform:matrix(0.91,-0.11,-0.02,0.95,37.62,19.84)}21.348%{transform:matrix(0.91,-0.11,-0.02,0.95,37.55,19.83)}22.472%{transform:matrix(0.91,-0.11,-0.02,0.95,37.49,19.82)}23.596%{transform:matrix(0.91,-0.11,-0.02,0.95,37.42,19.81)}24.719%{transform:matrix(0.91,-0.11,-0.02,0.95,37.37,19.8)}25.843%{transform:matrix(0.91,-0.11,-0.02,0.95,37.31,19.79)}26.966%{transform:matrix(0.91,-0.11,-0.02,0.95,37.26,19.79)}28.09%{transform:matrix(0.91,-0.11,-0.02,0.95,37.22,19.8)}29.213%{transform:matrix(0.91,-0.11,-0.02,0.95,37.17,19.81)}30.337%{transform:matrix(0.91,-0.11,-0.02,0.95,37.13,19.82)}31.461%{transform:matrix(0.91,-0.11,-0.02,0.95,37.09,19.84)}32.584%{transform:matrix(0.91,-0.11,-0.02,0.95,37.05,19.86)}33.708%{transform:matrix(0.91,-0.11,-0.02,0.95,37.01,19.88)}34.831%{transform:matrix(0.91,-0.11,-0.02,0.95,36.96,19.91)}35.955%{transform:matrix(0.91,-0.11,-0.02,0.95,36.91,19.95)}37.079%{transform:matrix(0.91,-0.11,-0.02,0.95,36.86,19.98)}38.202%{transform:matrix(0.91,-0.11,-0.02,0.95,36.8,20.02)}39.326%{transform:matrix(0.91,-0.12,-0.01,0.95,36.73,20.06)}40.449%{transform:matrix(0.91,-0.12,-0.01,0.95,36.66,20.11)}41.573%{transform:matrix(0.91,-0.12,-0.01,0.95,36.58,20.15)}42.697%{transform:matrix(0.91,-0.12,-0.01,0.95,36.49,20.2)}43.82%{transform:matrix(0.91,-0.12,-0.01,0.95,36.4,20.24)}44.944%{transform:matrix(0.91,-0.12,-0.01,0.95,36.3,20.29)}46.067%{transform:matrix(0.92,-0.12,-0.01,0.95,36.19,20.33)}47.191%{transform:matrix(0.92,-0.12,-0.01,0.95,36.07,20.38)}48.315%{transform:matrix(0.92,-0.07,-0.01,0.58,35.96,20.42)}49.438%{transform:matrix(0.92,-0.03,-0.01,0.21,35.84,20.46)}50.562%{transform:matrix(0.92,-0.03,-0.01,0.23,35.72,20.5)}51.685%{transform:matrix(0.92,-0.07,-0.01,0.53,35.6,20.54)}52.809%{transform:matrix(0.92,-0.1,-0.01,0.83,35.48,20.57)}53.933%{transform:matrix(0.92,-0.12,-0.01,0.95,35.37,20.61)}55.056%{transform:matrix(0.92,-0.12,-0.01,0.95,35.27,20.64)}56.18%{transform:matrix(0.92,-0.12,-0.01,0.95,35.17,20.67)}57.303%{transform:matrix(0.92,-0.12,-0.01,0.95,35.09,20.7)}58.427%{transform:matrix(0.92,-0.12,-0.01,0.95,35.02,20.74)}59.551%{transform:matrix(0.92,-0.12,-0.01,0.95,34.97,20.77)}60.674%{transform:matrix(0.92,-0.12,-0.01,0.95,34.93,20.8)}61.798%{transform:matrix(0.92,-0.12,-0.01,0.95,34.92,20.84)}62.921%{transform:matrix(0.92,-0.12,-0.01,0.95,34.92,20.88)}64.045%{transform:matrix(0.92,-0.12,-0.01,0.94,34.94,20.92)}65.169%{transform:matrix(0.92,-0.12,-0.01,0.94,34.99,20.96)}66.292%{transform:matrix(0.92,-0.12,-0.01,0.94,35.05,21.01)}67.416%{transform:matrix(0.92,-0.12,-0.01,0.94,35.14,21.07)}68.539%{transform:matrix(0.92,-0.12,-0.01,0.94,35.24,21.13)}69.663%{transform:matrix(0.92,-0.12,-0.01,0.94,35.37,21.2)}70.787%{transform:matrix(0.92,-0.12,-0.01,0.94,35.5,21.27)}71.91%{transform:matrix(0.92,-0.12,-0.01,0.94,35.66,21.35)}73.034%{transform:matrix(0.92,-0.12,-0.01,0.94,35.83,21.43)}74.157%{transform:matrix(0.92,-0.12,-0.01,0.94,36,21.52)}75.281%{transform:matrix(0.91,-0.13,-0.01,0.94,36.19,21.62)}76.404%{transform:matrix(0.91,-0.13,-0.01,0.94,36.37,21.72)}77.528%{transform:matrix(0.91,-0.13,-0.01,0.94,36.56,21.83)}78.652%{transform:matrix(0.91,-0.13,-0.01,0.94,36.75,21.94)}79.775%{transform:matrix(0.91,-0.13,-0.02,0.94,36.94,22.06)}80.899%{transform:matrix(0.91,-0.13,-0.02,0.94,37.11,22.18)}82.022%{transform:matrix(0.91,-0.13,-0.02,0.94,37.28,22.29)}83.146%{transform:matrix(0.91,-0.13,-0.02,0.94,37.44,22.41)}84.27%{transform:matrix(0.91,-0.13,-0.02,0.94,37.58,22.53)}85.393%{transform:matrix(0.91,-0.13,-0.02,0.94,37.71,22.65)}86.517%{transform:matrix(0.91,-0.13,-0.02,0.94,37.82,22.76)}87.64%{transform:matrix(0.91,-0.13,-0.02,0.94,37.91,22.87)}88.764%{transform:matrix(0.91,-0.13,-0.02,0.94,37.98,22.98)}89.888%{transform:matrix(0.9,-0.13,-0.02,0.94,38.03,23.07)}91.011%{transform:matrix(0.9,-0.13,-0.02,0.93,38.07,23.16)}92.135%{transform:matrix(0.9,-0.13,-0.02,0.93,38.08,23.23)}93.258%{transform:matrix(0.9,-0.14,-0.02,0.93,38.08,23.3)}94.382%{transform:matrix(0.9,-0.14,-0.02,0.93,38.06,23.35)}95.506%{transform:matrix(0.9,-0.14,-0.02,0.93,38.02,23.39)}96.629%{transform:matrix(0.9,-0.14,-0.02,0.93,37.97,23.42)}97.753%{transform:matrix(0.91,-0.14,-0.02,0.93,37.9,23.43)}98.876%{transform:matrix(0.91,-0.14,-0.02,0.93,37.83,23.43)}100%{transform:matrix(0.91,-0.14,-0.02,0.93,37.74,23.41)}}</style></svg>